<?xml version="1.0" encoding="UTF-8"?>
<!DOCTYPE svg PUBLIC "-//W3C//DTD SVG 1.1//EN" "http://www.w3.org/Graphics/SVG/1.1/DTD/svg11.dtd">
<svg xmlns="http://www.w3.org/2000/svg" version="1.1" width="1800px" height="1800px" style="shape-rendering:geometricPrecision; text-rendering:geometricPrecision; image-rendering:optimizeQuality; fill-rule:evenodd; clip-rule:evenodd" xmlns:xlink="http://www.w3.org/1999/xlink">
<g><path style="opacity:0.971" fill="#000000" d="M 1256.5,588.5 C 1261.25,595.671 1265.75,603.004 1270,610.5C 1273.89,623.715 1277.22,637.049 1280,650.5C 1280.67,834.167 1280.67,1017.83 1280,1201.5C 1278.11,1228.03 1265.44,1247.36 1242,1259.5C 1235.65,1262.73 1229.15,1265.56 1222.5,1268C 1204.01,1272.14 1185.34,1275.14 1166.5,1277C 1008.5,1277.67 850.5,1277.67 692.5,1277C 668.719,1272.85 645.886,1265.68 624,1255.5C 602.15,1244.09 586.483,1227.09 577,1204.5C 571.946,1188.83 568.612,1172.83 567,1156.5C 566.333,1137.5 566.333,1118.5 567,1099.5C 568.872,1089.48 570.872,1079.48 573,1069.5C 575.401,1063.47 577.901,1057.47 580.5,1051.5C 598.837,1022 615.671,991.664 631,960.5C 632.571,957.927 634.404,955.594 636.5,953.5C 637.453,1005.9 637.787,1058.23 637.5,1110.5C 636.718,1115.28 637.385,1119.95 639.5,1124.5C 640.588,1130.2 642.922,1135.2 646.5,1139.5C 647.756,1145 650.756,1149.34 655.5,1152.5C 657.9,1155.9 660.9,1158.57 664.5,1160.5C 664.833,1160.5 665.167,1160.5 665.5,1160.5C 665.369,1161.38 665.702,1162.04 666.5,1162.5C 667.429,1163.55 668.095,1163.55 668.5,1162.5C 668.833,1162.5 669.167,1162.5 669.5,1162.5C 669.281,1163.68 669.614,1164.68 670.5,1165.5C 672.167,1166.17 673.833,1166.83 675.5,1167.5C 676.107,1167.38 676.44,1167.04 676.5,1166.5C 677.167,1166.5 677.833,1166.5 678.5,1166.5C 678.5,1167.5 678.5,1168.5 678.5,1169.5C 684.707,1170.59 690.874,1171.93 697,1173.5C 697.765,1173.43 698.265,1173.1 698.5,1172.5C 701.833,1172.5 705.167,1172.5 708.5,1172.5C 710.74,1173.69 713.24,1174.35 716,1174.5C 718.008,1174.69 719.508,1174.03 720.5,1172.5C 844.165,1173.25 967.831,1173.59 1091.5,1173.5C 1106.43,1171.63 1121.43,1170.13 1136.5,1169C 1152.15,1163.76 1163.99,1153.92 1172,1139.5C 1172.5,1137.5 1173,1135.5 1173.5,1133.5C 1172.17,997.775 1172.17,861.941 1173.5,726C 1173.75,713.42 1171.75,701.254 1167.5,689.5C 1165.68,688.185 1164.02,686.685 1162.5,685C 1159.99,684.624 1157.66,683.79 1155.5,682.5C 891.501,681.5 627.501,681.167 363.5,681.5C 362.486,680.235 360.986,679.569 359,679.5C 352.857,680.284 346.69,680.617 340.5,680.5C 340.5,681.5 340.5,682.5 340.5,683.5C 331.752,682.705 324.085,685.038 317.5,690.5C 316.5,690.833 315.833,691.5 315.5,692.5C 314.18,694.817 312.514,696.817 310.5,698.5C 309.115,699.574 307.949,700.907 307,702.5C 304.315,708.182 303.148,713.849 303.5,719.5C 304.833,723.167 304.833,726.833 303.5,730.5C 302.883,730.611 302.383,730.944 302,731.5C 301.333,737.5 301.333,743.5 302,749.5C 302.278,750.416 302.778,751.082 303.5,751.5C 304.432,999.766 304.432,1248.43 303.5,1497.5C 302.275,1498.15 301.608,1499.32 301.5,1501C 301.646,1503.76 302.313,1506.26 303.5,1508.5C 304.263,1510.37 305.263,1512.04 306.5,1513.5C 307.167,1515.17 307.833,1516.83 308.5,1518.5C 309.625,1520.13 310.959,1521.63 312.5,1523C 315.796,1524.9 319.296,1526.4 323,1527.5C 323.765,1527.43 324.265,1527.1 324.5,1526.5C 732.937,1526.49 1141.1,1526.49 1549,1526.5C 1564.74,1522.44 1573.74,1512.44 1576,1496.5C 1576.17,1489.5 1576.33,1482.5 1576.5,1475.5C 1576.31,1114.75 1576.31,753.914 1576.5,393C 1575.96,371.501 1575.46,350.001 1575,328.5C 1573.5,316.917 1568.67,307.084 1560.5,299C 1554.84,295.753 1548.84,293.42 1542.5,292C 1298.83,291.333 1055.17,291.333 811.5,292C 801.353,295.212 801.02,298.879 810.5,303C 814.333,303.167 818.167,303.333 822,303.5C 1044.09,303.62 1267.59,303.287 1492.5,302.5C 1507.18,303.052 1521.84,303.885 1536.5,305C 1546.69,309.172 1554.53,316.005 1560,325.5C 1560.94,329.114 1561.61,332.781 1562,336.5C 1562.03,354.257 1562.69,371.924 1564,389.5C 1564.67,757.833 1564.67,1126.17 1564,1494.5C 1562.98,1498.92 1561.65,1503.25 1560,1507.5C 1552.38,1513.41 1543.71,1516.07 1534,1515.5C 1140.37,1515.27 742.865,1515.27 341.5,1515.5C 333.325,1515.34 326.158,1512.67 320,1507.5C 318.734,1504.53 317.567,1501.53 316.5,1498.5C 315.5,1242.83 315.167,987.168 315.5,731.5C 316.496,731.586 317.329,731.252 318,730.5C 318.44,728.134 318.94,725.801 319.5,723.5C 323.138,706.822 333.471,697.155 350.5,694.5C 354.649,695.08 358.316,694.414 361.5,692.5C 621.167,692.333 880.834,692.5 1140.5,693C 1142.36,693.422 1144.19,693.922 1146,694.5C 1147.19,696.024 1148.69,697.19 1150.5,698C 1157.29,707.071 1161.12,717.237 1162,728.5C 1162.67,860.167 1162.67,991.833 1162,1123.5C 1160.85,1134.47 1156.35,1143.81 1148.5,1151.5C 1135.42,1158.52 1121.42,1161.69 1106.5,1161C 977.833,1161.67 849.167,1161.67 720.5,1161C 683.924,1161.65 660.757,1144.49 651,1109.5C 649.531,1056.2 649.031,1002.86 649.5,949.5C 657.514,958.714 664.68,968.714 671,979.5C 674.582,984.516 678.582,989.85 683,995.5C 695.473,1019.63 711.973,1040.46 732.5,1058C 736.37,1060.52 740.37,1062.85 744.5,1065C 752.882,1066.52 761.215,1068.02 769.5,1069.5C 780.363,1068.18 791.197,1068.18 802,1069.5C 811.803,1068.82 821.636,1068.15 831.5,1067.5C 832.748,1068.04 833.915,1068.71 835,1069.5C 867.346,1069 900.012,1068.33 933,1067.5C 937.667,1068.17 942.333,1068.83 947,1069.5C 962.084,1067.65 977.084,1067.65 992,1069.5C 1005.13,1068.49 1018.3,1067.32 1031.5,1066C 1039.65,1063.53 1046.48,1059.03 1052,1052.5C 1054.59,1046.99 1056.92,1041.32 1059,1035.5C 1060.04,1025.01 1060.87,1014.51 1061.5,1004C 1061.53,951.134 1061.37,897.634 1061,843.5C 1058.66,829.176 1051.5,818.01 1039.5,810C 1031.3,805.488 1022.63,802.155 1013.5,800C 833.167,799.333 652.833,799.333 472.5,800C 465.375,800.519 458.708,802.519 452.5,806C 446.833,809.667 441.167,813.333 435.5,817C 427.065,824.365 421.565,833.532 419,844.5C 418.028,851.135 417.361,857.801 417,864.5C 416.919,1036.98 416.252,1209.31 415,1381.5C 416.451,1386.4 417.784,1391.4 419,1396.5C 420.924,1398.82 422.257,1401.49 423,1404.5C 432.594,1414.73 444.428,1420.57 458.5,1422C 775.521,1422.17 1092.52,1422.67 1409.5,1423.5C 1437.58,1420.92 1453.41,1405.59 1457,1377.5C 1456.97,1228.25 1456.47,1078.42 1455.5,928C 1455.95,921.762 1456.28,915.095 1456.5,908C 1455.82,886.042 1455.16,864.042 1454.5,842C 1454.64,841.228 1454.98,840.561 1455.5,840C 1454.67,709.903 1454.17,579.736 1454,449.5C 1452.17,426.929 1440.67,412.096 1419.5,405C 1417.17,404.667 1414.83,404.333 1412.5,404C 1209.5,403.5 1006.5,403.333 803.5,403.5C 803.768,406.119 803.435,408.619 802.5,411C 795.516,411.305 788.683,410.472 782,408.5C 780.105,409.689 778.105,410.689 776,411.5C 777.422,418.008 779.255,424.508 781.5,431C 781.441,432.436 781.108,433.769 780.5,435C 772.613,435.835 764.779,436.668 757,437.5C 755.869,436.396 755.035,436.729 754.5,438.5C 761.672,447.21 767.838,456.543 773,466.5C 773.759,469.785 775.092,472.785 777,475.5C 780.28,486.838 777.113,495.671 767.5,502C 763.828,503.17 760.162,504.337 756.5,505.5C 727.331,499.963 699.664,490.296 673.5,476.5C 656.151,464.197 640.151,450.53 625.5,435.5C 625.378,432.708 624.044,430.708 621.5,429.5C 620.833,429.5 620.5,429.167 620.5,428.5C 619.864,426.205 618.531,424.539 616.5,423.5C 612.936,419.386 609.603,415.052 606.5,410.5C 605.525,408.205 604.192,406.205 602.5,404.5C 602.389,403.883 602.056,403.383 601.5,403C 596.98,402.186 592.646,402.353 588.5,403.5C 580.79,404.366 573.123,404.699 565.5,404.5C 575.13,364.443 564.463,330.776 533.5,303.5C 564.963,303.08 596.296,303.08 627.5,303.5C 631.01,303.86 634.01,302.86 636.5,300.5C 639.664,302.191 641.664,301.191 642.5,297.5C 642.144,295.81 641.144,294.81 639.5,294.5C 637.319,294.716 635.653,293.883 634.5,292C 598.356,291.994 562.356,291.327 526.5,290C 547.512,274.495 559.679,253.662 563,227.5C 563.935,213.096 563.435,198.762 561.5,184.5C 578.009,184.83 594.342,184.496 610.5,183.5C 613.806,180.86 616.806,177.86 619.5,174.5C 619.414,173.504 619.748,172.671 620.5,172C 645.501,153.005 671.334,135.172 698,118.5C 718.779,108.753 740.279,101.253 762.5,96C 769.524,95.1689 776.524,95.3356 783.5,96.5C 797.316,101.794 802.483,111.794 799,126.5C 797.64,130.865 795.807,135.031 793.5,139C 784.981,150.702 775.314,161.369 764.5,171C 773.23,170.441 782.23,170.608 791.5,171.5C 790.857,175.401 791.857,178.734 794.5,181.5C 798.386,182.814 802.386,183.481 806.5,183.5C 1067.84,183.053 1329.18,181.553 1590.5,179C 1606.48,180.529 1621.48,185.196 1635.5,193C 1653.97,206.828 1666.14,224.995 1672,247.5C 1673.22,254.135 1674.22,260.801 1675,267.5C 1675.88,270.257 1676.88,272.924 1678,275.5C 1678.67,695.5 1678.67,1115.5 1678,1535.5C 1673.27,1560.46 1662.1,1581.96 1644.5,1600C 1638.19,1604.47 1631.53,1608.31 1624.5,1611.5C 1613.52,1615.77 1602.52,1619.94 1591.5,1624C 1167.17,1624.33 742.833,1624.67 318.5,1625C 307.425,1626.45 296.091,1626.11 284.5,1624C 268.831,1620.37 253.331,1616.21 238,1611.5C 225.519,1604.02 215.353,1594.19 207.5,1582C 203.014,1569.24 200.181,1556.07 199,1542.5C 198.333,1241.5 198.333,940.5 199,639.5C 200.919,631.907 202.586,624.24 204,616.5C 209.318,608.023 214.318,599.356 219,590.5C 234.844,576.089 253.344,566.589 274.5,562C 584.833,561.333 895.167,561.333 1205.5,562C 1216.33,563.494 1226.66,566.494 1236.5,571C 1244.62,575.296 1251.29,581.129 1256.5,588.5 Z M 759.5,176.5 C 761.167,176.5 762.833,176.5 764.5,176.5C 770.672,176.124 776.672,176.791 782.5,178.5C 783.167,178.5 783.833,178.5 784.5,178.5C 780.272,185.379 776.939,192.712 774.5,200.5C 775.289,203.568 777.289,205.235 780.5,205.5C 782.167,205.5 783.833,205.5 785.5,205.5C 789.36,206.644 793.36,207.311 797.5,207.5C 798.833,207.5 800.167,207.5 801.5,207.5C 804.167,210.081 803.833,212.581 800.5,215C 801.056,215.383 801.389,215.883 801.5,216.5C 799.856,216.81 798.856,217.81 798.5,219.5C 798.5,219.833 798.5,220.167 798.5,220.5C 795.167,223.5 791.833,226.5 788.5,229.5C 788.167,229.5 787.833,229.5 787.5,229.5C 785.81,229.856 784.81,230.856 784.5,232.5C 784.167,232.5 783.833,232.5 783.5,232.5C 778.299,235.263 773.299,238.263 768.5,241.5C 768.167,241.5 767.833,241.5 767.5,241.5C 760.782,244.504 754.115,247.504 747.5,250.5C 745.784,250.629 744.117,250.962 742.5,251.5C 739.16,253.59 735.493,254.923 731.5,255.5C 731.167,255.5 730.833,255.5 730.5,255.5C 725.478,257.811 720.145,259.311 714.5,260C 713.944,260.383 713.611,260.883 713.5,261.5C 722.416,262.471 731.416,262.804 740.5,262.5C 742.806,262.993 745.139,263.326 747.5,263.5C 749.167,263.5 750.833,263.5 752.5,263.5C 753.99,265.28 755.99,265.946 758.5,265.5C 759.167,265.5 759.833,265.5 760.5,265.5C 762.117,266.038 763.784,266.371 765.5,266.5C 766.5,266.5 767.5,266.5 768.5,266.5C 775.657,268.518 782.657,270.852 789.5,273.5C 790.167,273.5 790.833,273.5 791.5,273.5C 792.93,274.537 794.597,275.204 796.5,275.5C 796.833,275.5 797.167,275.5 797.5,275.5C 800.164,278.166 803.497,279.832 807.5,280.5C 806.251,282.136 804.584,283.303 802.5,284C 801.748,284.671 801.414,285.504 801.5,286.5C 797.852,287.322 794.852,289.156 792.5,292C 791.242,293.741 790.242,295.574 789.5,297.5C 789.5,298.5 789.5,299.5 789.5,300.5C 791.351,305.607 795.017,308.607 800.5,309.5C 802.795,312.297 805.295,314.964 808,317.5C 808.667,318.167 808.667,318.833 808,319.5C 799.668,324.831 790.835,329.164 781.5,332.5C 781.167,332.5 780.833,332.5 780.5,332.5C 776.305,333.39 772.305,334.723 768.5,336.5C 768.167,336.5 767.833,336.5 767.5,336.5C 760.957,337.088 754.624,338.422 748.5,340.5C 748.167,340.5 747.833,340.5 747.5,340.5C 734.792,341.231 722.126,340.565 709.5,338.5C 707.958,337.699 706.292,337.366 704.5,337.5C 699.167,336.833 693.833,336.167 688.5,335.5C 688.389,334.883 688.056,334.383 687.5,334C 683.468,333.227 679.468,332.394 675.5,331.5C 674.833,331.5 674.167,331.5 673.5,331.5C 673.389,330.883 673.056,330.383 672.5,330C 668.553,328.846 664.553,328.013 660.5,327.5C 660.5,326.167 659.833,325.5 658.5,325.5C 657.833,325.5 657.167,325.5 656.5,325.5C 653.604,324.719 650.937,323.385 648.5,321.5C 648.167,321.5 647.833,321.5 647.5,321.5C 645.493,320.481 644.16,318.815 643.5,316.5C 647.144,311.688 650.978,307.021 655,302.5C 657.552,296.726 656.386,292.059 651.5,288.5C 651.5,287.833 651.167,287.5 650.5,287.5C 649.962,285.883 649.629,284.216 649.5,282.5C 650.338,282.158 650.672,281.492 650.5,280.5C 653.659,279.669 656.659,278.669 659.5,277.5C 659.833,277.5 660.167,277.5 660.5,277.5C 668.026,274.577 675.693,271.91 683.5,269.5C 683.833,269.5 684.167,269.5 684.5,269.5C 686.728,268.407 689.061,267.407 691.5,266.5C 686.844,265.431 682.178,265.431 677.5,266.5C 675.833,266.5 674.167,266.5 672.5,266.5C 670.5,266.167 668.5,265.833 666.5,265.5C 665.833,265.5 665.167,265.5 664.5,265.5C 663.395,263.777 661.728,262.777 659.5,262.5C 658.833,262.5 658.167,262.5 657.5,262.5C 657.768,257.426 659.268,252.759 662,248.5C 664.17,239.501 660.67,234.834 651.5,234.5C 649.883,233.962 648.216,233.629 646.5,233.5C 644.5,233.5 642.5,233.5 640.5,233.5C 644.481,226.52 649.814,220.854 656.5,216.5C 657.906,216.027 658.573,215.027 658.5,213.5C 659.167,213.5 659.5,213.167 659.5,212.5C 664.13,209.514 668.797,206.514 673.5,203.5C 674.338,203.158 674.672,202.492 674.5,201.5C 679.903,198.798 685.237,196.132 690.5,193.5C 690.833,193.5 691.167,193.5 691.5,193.5C 695.482,192.337 699.482,191.171 703.5,190C 704.056,189.617 704.389,189.117 704.5,188.5C 704.833,188.5 705.167,188.5 705.5,188.5C 709.112,187.578 712.779,186.911 716.5,186.5C 717.833,186.5 718.5,185.833 718.5,184.5C 722.952,184.369 727.286,183.702 731.5,182.5C 732.167,182.5 732.833,182.5 733.5,182.5C 735.554,182.635 737.221,181.968 738.5,180.5C 739.167,180.5 739.833,180.5 740.5,180.5C 742.621,180.675 744.621,180.341 746.5,179.5C 747.167,179.5 747.833,179.5 748.5,179.5C 749.959,179.567 751.292,179.234 752.5,178.5C 753.167,178.5 753.833,178.5 754.5,178.5C 756.698,178.88 758.365,178.213 759.5,176.5 Z M 696.5,340.5 C 698.5,340.5 700.5,340.5 702.5,340.5C 703.209,341.404 704.209,341.737 705.5,341.5C 709.073,341.891 712.407,342.891 715.5,344.5C 716.167,344.5 716.833,344.5 717.5,344.5C 720.9,345.524 724.233,346.857 727.5,348.5C 728.167,348.5 728.833,348.5 729.5,348.5C 730.93,349.537 732.597,350.204 734.5,350.5C 734.833,350.5 735.167,350.5 735.5,350.5C 735.5,351.833 736.167,352.5 737.5,352.5C 737.833,352.5 738.167,352.5 738.5,352.5C 747.136,357.116 755.803,361.782 764.5,366.5C 765.444,368.688 767.111,370.021 769.5,370.5C 778.9,378.071 786.733,387.071 793,397.5C 793.311,399.556 793.811,401.556 794.5,403.5C 794,403.833 793.5,404.167 793,404.5C 788.176,403.734 783.343,403.068 778.5,402.5C 777.5,402.5 776.5,402.5 775.5,402.5C 774.849,401.909 774.182,401.243 773.5,400.5C 772.193,401.816 770.693,402.816 769,403.5C 768.333,406.167 768.333,408.833 769,411.5C 769.538,416.147 770.705,420.48 772.5,424.5C 770.11,426.02 767.443,427.02 764.5,427.5C 763.833,427.5 763.167,427.5 762.5,427.5C 756.833,427.5 751.167,427.5 745.5,427.5C 741.239,428.092 736.906,428.092 732.5,427.5C 731.833,427.5 731.167,427.5 730.5,427.5C 729.22,426.069 727.553,425.402 725.5,425.5C 724.833,425.5 724.167,425.5 723.5,425.5C 717.358,424.119 711.358,422.119 705.5,419.5C 704.292,418.766 702.959,418.433 701.5,418.5C 699.182,416.044 696.182,414.711 692.5,414.5C 691.225,412.27 689.225,410.937 686.5,410.5C 686.167,410.5 685.833,410.5 685.5,410.5C 682.102,407.133 678.102,404.466 673.5,402.5C 670.68,400.255 667.68,398.255 664.5,396.5C 663.564,395.026 662.23,394.026 660.5,393.5C 660.167,393.5 659.833,393.5 659.5,393.5C 658.461,391.469 656.795,390.136 654.5,389.5C 652.888,387.702 651.388,385.702 650,383.5C 648.887,382.695 647.721,382.028 646.5,381.5C 646.34,379.847 645.674,378.514 644.5,377.5C 643.833,377.5 643.5,377.167 643.5,376.5C 644.043,376.44 644.376,376.107 644.5,375.5C 642.528,373.585 641.528,371.251 641.5,368.5C 646.64,367.512 651.974,367.179 657.5,367.5C 659.311,367.428 660.644,366.595 661.5,365C 662.31,362.217 662.31,359.383 661.5,356.5C 661.5,356.167 661.5,355.833 661.5,355.5C 660.314,351.746 659.314,347.913 658.5,344C 660.094,341.619 662.427,340.453 665.5,340.5C 669.833,340.5 674.167,340.5 678.5,340.5C 684.519,339.385 690.519,339.385 696.5,340.5 Z"/></g>
<g><path style="opacity:0.978" fill="#000000" d="M 481.5,449.5 C 473.636,453.596 465.969,457.929 458.5,462.5C 455.835,464.591 452.835,466.424 449.5,468C 432.58,472.261 415.413,475.095 398,476.5C 373.734,474.087 350.234,468.587 327.5,460C 263.19,433.017 202.19,400.017 144.5,361C 134.968,351.645 124.635,343.145 113.5,335.5C 108.453,330.29 103.62,324.957 99,319.5C 96.4902,315.681 94.1568,311.681 92,307.5C 87.8145,286.673 91.9812,267.673 104.5,250.5C 115.174,238.993 126.508,228.159 138.5,218C 176.455,188.77 217.288,163.936 261,143.5C 276.095,137.608 291.262,132.108 306.5,127C 322.02,123.093 337.52,118.926 353,114.5C 370.376,110.939 387.876,108.106 405.5,106C 433.474,102.906 458.474,109.906 480.5,127C 491.458,136.491 502.292,145.991 513,155.5C 527.124,176.93 530.957,199.93 524.5,224.5C 516.892,249.264 501.392,266.93 478,277.5C 459.944,283.566 441.61,288.566 423,292.5C 421.276,292.955 419.776,293.788 418.5,295C 438.729,299.85 458.562,306.016 478,313.5C 487.259,317.922 496.092,323.088 504.5,329C 529.69,351.948 536.357,378.948 524.5,410C 520.592,418.459 515.258,425.793 508.5,432C 499.232,437.568 490.232,443.401 481.5,449.5 Z M 398.5,145.5 C 398.833,145.5 399.167,145.5 399.5,145.5C 419.729,157.955 426.896,176.288 421,200.5C 419.109,203.96 417.609,207.96 416.5,212.5C 412.163,217.514 408.163,222.848 404.5,228.5C 399.494,231.67 394.16,234.337 388.5,236.5C 376.689,238.443 366.022,235.777 356.5,228.5C 351.812,224.479 347.479,220.146 343.5,215.5C 343.448,212.654 342.448,210.32 340.5,208.5C 339.708,202.87 339.375,197.203 339.5,191.5C 342.01,182.302 347.01,174.635 354.5,168.5C 357.455,167.457 360.122,166.123 362.5,164.5C 367.595,164.221 372.595,164.555 377.5,165.5C 381.063,166.615 384.396,168.281 387.5,170.5C 393.142,176.74 394.975,184.073 393,192.5C 391.089,197.042 388.256,200.709 384.5,203.5C 376.535,207.202 369.702,205.868 364,199.5C 362.454,189.543 366.287,186.543 375.5,190.5C 380.159,188.103 380.493,185.436 376.5,182.5C 376.5,181.167 375.833,180.5 374.5,180.5C 371.36,179.359 368.027,179.192 364.5,180C 362.34,180.996 360.673,182.496 359.5,184.5C 354.485,191.431 353.318,199.097 356,207.5C 362.616,217.847 372.116,222.68 384.5,222C 390.98,219.437 396.314,215.437 400.5,210C 409.276,197.35 410.776,183.85 405,169.5C 398.083,160.962 389.249,155.962 378.5,154.5C 372.401,153.194 366.401,153.194 360.5,154.5C 357.393,154.351 354.393,154.851 351.5,156C 345.383,159.298 340.049,163.465 335.5,168.5C 327.456,180.893 324.623,194.56 327,209.5C 328.678,217.701 332.178,225.034 337.5,231.5C 338.94,232.952 340.606,233.952 342.5,234.5C 343.539,236.531 345.205,237.864 347.5,238.5C 347.369,239.376 347.702,240.043 348.5,240.5C 351.735,241.461 354.735,242.794 357.5,244.5C 357.833,244.5 358.167,244.5 358.5,244.5C 383.934,253.32 405.934,247.987 424.5,228.5C 428.777,222.978 432.111,216.978 434.5,210.5C 437.859,200.524 439.192,190.191 438.5,179.5C 438.221,170.91 436.888,162.577 434.5,154.5C 435.552,154.351 436.552,154.517 437.5,155C 448.12,164.408 453.787,176.241 454.5,190.5C 452.111,201.066 449.278,211.399 446,221.5C 437.038,239.961 422.871,252.628 403.5,259.5C 403.167,259.5 402.833,259.5 402.5,259.5C 396.207,262.214 389.54,263.547 382.5,263.5C 360.069,263.767 341.069,256.1 325.5,240.5C 323.963,237.398 321.963,234.732 319.5,232.5C 315.918,224.189 313.252,215.522 311.5,206.5C 310.555,189.535 314.722,173.868 324,159.5C 328.412,155.584 332.579,151.584 336.5,147.5C 356.824,136.243 377.491,135.576 398.5,145.5 Z M 390.5,320.5 C 407.389,323.389 421.889,330.722 434,342.5C 437.76,347.734 441.593,352.734 445.5,357.5C 448.431,365.632 450.765,373.965 452.5,382.5C 452.679,398.289 447.679,412.122 437.5,424C 436.123,425.241 434.79,425.408 433.5,424.5C 437.416,417.02 439.416,409.02 439.5,400.5C 439.911,387.875 437.244,376.209 431.5,365.5C 431.009,362.99 430.009,360.656 428.5,358.5C 421.545,348.858 412.545,341.858 401.5,337.5C 395.032,335.588 388.532,334.254 382,333.5C 374.209,334.591 366.375,335.925 358.5,337.5C 349.008,341.323 340.842,346.99 334,354.5C 333.517,355.448 333.351,356.448 333.5,357.5C 332.503,357.47 331.836,357.97 331.5,359C 323.964,376.827 325.13,393.994 335,410.5C 340.022,414.847 345.355,418.847 351,422.5C 363.333,425.167 375.667,425.167 388,422.5C 397.584,418.63 404.418,411.963 408.5,402.5C 408.5,397.5 408.5,392.5 408.5,387.5C 407.062,383.164 405.062,379.164 402.5,375.5C 395.004,360.392 383.504,356.058 368,362.5C 366.97,362.836 366.47,363.503 366.5,364.5C 358.178,367.509 354.178,373.509 354.5,382.5C 355.523,396.886 362.857,402.219 376.5,398.5C 378.876,396.373 379.876,393.707 379.5,390.5C 374.663,391.235 369.663,391.235 364.5,390.5C 361.578,381.012 365.078,376.012 375,375.5C 379.207,376.18 383.373,377.18 387.5,378.5C 395.478,388.374 395.478,398.207 387.5,408C 383.644,410.655 379.644,412.822 375.5,414.5C 371.5,414.5 367.5,414.5 363.5,414.5C 358.161,412.599 353.161,409.932 348.5,406.5C 343.819,398.957 340.819,390.79 339.5,382C 339.654,379.309 339.987,376.642 340.5,374C 342.275,368.281 344.942,363.114 348.5,358.5C 355.234,354.114 362.234,350.114 369.5,346.5C 387.662,342.498 401.995,348.164 412.5,363.5C 422.387,377.356 425.387,393.023 421.5,410.5C 415.073,421.529 405.406,429.862 392.5,435.5C 387.569,436.741 382.569,437.575 377.5,438C 376.944,438.383 376.611,438.883 376.5,439.5C 371.167,439.5 365.833,439.5 360.5,439.5C 360.389,438.883 360.056,438.383 359.5,438C 351.95,437.53 344.95,435.364 338.5,431.5C 333.097,427.148 327.763,422.814 322.5,418.5C 322.532,416.381 321.532,415.048 319.5,414.5C 316.428,407.021 313.928,399.355 312,391.5C 308.855,359.568 322.021,337.401 351.5,325C 358.638,322.723 365.971,321.223 373.5,320.5C 379.188,319.284 384.855,319.284 390.5,320.5 Z"/></g>
<g><path style="opacity:0.478" fill="#707070" d="M 398.5,145.5 C 377.491,135.576 356.824,136.243 336.5,147.5C 336.167,147.5 335.833,147.5 335.5,147.5C 338.654,143.816 342.654,141.316 347.5,140C 364.456,134.812 381.123,135.646 397.5,142.5C 398.386,143.325 398.719,144.325 398.5,145.5 Z"/></g>
<g><path style="opacity:0.216" fill="#969696" d="M 360.5,154.5 C 366.401,153.194 372.401,153.194 378.5,154.5C 378.5,154.833 378.5,155.167 378.5,155.5C 377.833,155.5 377.167,155.5 376.5,155.5C 371.36,154.512 366.026,154.179 360.5,154.5 Z"/></g>
<g><path style="opacity:0.005" fill="#fefffe" d="M 527.5,157.5 C 528.209,156.596 529.209,156.263 530.5,156.5C 530.306,160.005 529.306,160.338 527.5,157.5 Z"/></g>
<g><path style="opacity:0.661" fill="#626262" d="M 378.5,164.5 C 377.833,164.5 377.5,164.833 377.5,165.5C 372.595,164.555 367.595,164.221 362.5,164.5C 361.5,164.5 360.5,164.5 359.5,164.5C 362.526,162.981 365.859,162.315 369.5,162.5C 371.833,162.667 374.167,162.833 376.5,163C 377.416,163.278 378.082,163.778 378.5,164.5 Z"/></g>
<g><path style="opacity:0.329" fill="#6c6c6c" d="M 360.5,154.5 C 366.026,154.179 371.36,154.512 376.5,155.5C 360.082,153.342 346.416,158.342 335.5,170.5C 335.5,169.833 335.5,169.167 335.5,168.5C 340.049,163.465 345.383,159.298 351.5,156C 354.393,154.851 357.393,154.351 360.5,154.5 Z"/></g>
<g><path style="opacity:0.194" fill="#979797" d="M 378.5,164.5 C 382.37,165.263 385.37,167.263 387.5,170.5C 384.396,168.281 381.063,166.615 377.5,165.5C 377.5,164.833 377.833,164.5 378.5,164.5 Z"/></g>
<g><path style="opacity:0.016" fill="#9f9f9f" d="M 538.5,174.5 C 537.167,173.833 535.833,173.167 534.5,172.5C 533.957,172.44 533.624,172.107 533.5,171.5C 534.002,170.479 534.668,170.312 535.5,171C 537.063,171.759 538.063,172.926 538.5,174.5 Z"/></g>
<g><path style="opacity:0.79" fill="#000000" d="M 534.5,172.5 C 535.833,173.167 537.167,173.833 538.5,174.5C 541.008,176.924 544.008,178.59 547.5,179.5C 553.262,199.269 553.762,219.269 549,239.5C 544.392,254.539 536.226,267.206 524.5,277.5C 518.031,281.478 511.864,285.811 506,290.5C 496.518,291.795 487.018,291.795 477.5,290.5C 513.189,275.682 533.689,249.015 539,210.5C 540.257,197.471 538.757,184.804 534.5,172.5 Z"/></g>
<g><path style="opacity:0.439" fill="#4f4f4f" d="M 764.5,176.5 C 770.31,175.51 776.31,175.177 782.5,175.5C 782.5,176.5 782.5,177.5 782.5,178.5C 776.672,176.791 770.672,176.124 764.5,176.5 Z"/></g>
<g><path style="opacity:0.027" fill="#a2a2a2" d="M 538.5,174.5 C 542.203,175.146 545.203,176.812 547.5,179.5C 544.008,178.59 541.008,176.924 538.5,174.5 Z"/></g>
<g><path style="opacity:0.012" fill="#929292" d="M 759.5,176.5 C 758.365,178.213 756.698,178.88 754.5,178.5C 755.552,176.744 757.219,176.077 759.5,176.5 Z"/></g>
<g><path style="opacity:0.114" fill="#707070" d="M 752.5,178.5 C 751.292,179.234 749.959,179.567 748.5,179.5C 748.62,178.414 749.287,177.747 750.5,177.5C 751.416,177.543 752.083,177.876 752.5,178.5 Z"/></g>
<g><path style="opacity:0.078" fill="#8c8c8c" d="M 335.5,147.5 C 335.833,147.5 336.167,147.5 336.5,147.5C 332.579,151.584 328.412,155.584 324,159.5C 314.722,173.868 310.555,189.535 311.5,206.5C 313.252,215.522 315.918,224.189 319.5,232.5C 317.549,230.52 316.049,228.187 315,225.5C 304.134,196.822 309.3,171.655 330.5,150C 332.193,149.153 333.86,148.32 335.5,147.5 Z"/></g>
<g><path style="opacity:0.302" fill="#606060" d="M 746.5,179.5 C 744.621,180.341 742.621,180.675 740.5,180.5C 741.134,179.053 742.301,178.387 744,178.5C 745.07,178.528 745.903,178.861 746.5,179.5 Z"/></g>
<g><path style="opacity:0.827" fill="#616161" d="M 374.5,180.5 C 371.023,181.323 367.356,181.823 363.5,182C 362.529,183.481 361.196,184.315 359.5,184.5C 360.673,182.496 362.34,180.996 364.5,180C 368.027,179.192 371.36,179.359 374.5,180.5 Z"/></g>
<g><path style="opacity:0.031" fill="#696969" d="M 738.5,180.5 C 737.221,181.968 735.554,182.635 733.5,182.5C 733.414,181.504 733.748,180.671 734.5,180C 736.066,179.235 737.399,179.402 738.5,180.5 Z"/></g>
<g><path style="opacity:0.182" fill="#939393" d="M 416.5,212.5 C 417.609,207.96 419.109,203.96 421,200.5C 426.896,176.288 419.729,157.955 399.5,145.5C 399.435,145.062 399.601,144.728 400,144.5C 425.61,160.155 431.944,181.822 419,209.5C 418.623,210.942 417.79,211.942 416.5,212.5 Z"/></g>
<g><path style="opacity:0.106" fill="#d2d2d2" d="M 619.5,174.5 C 616.806,177.86 613.806,180.86 610.5,183.5C 608.833,183.5 607.167,183.5 605.5,183.5C 610.673,181.334 615.34,178.334 619.5,174.5 Z"/></g>
<g><path style="opacity:0.385" fill="#7b7b7b" d="M 605.5,183.5 C 607.167,183.5 608.833,183.5 610.5,183.5C 594.342,184.496 578.009,184.83 561.5,184.5C 561.369,183.624 561.702,182.957 562.5,182.5C 576.785,183.483 591.118,183.816 605.5,183.5 Z"/></g>
<g><path style="opacity:0.298" fill="#8c8c8c" d="M 387.5,170.5 C 393.427,174.191 396.094,179.691 395.5,187C 395.527,195.112 391.861,200.612 384.5,203.5C 388.256,200.709 391.089,197.042 393,192.5C 394.975,184.073 393.142,176.74 387.5,170.5 Z"/></g>
<g><path style="opacity:0.127" fill="#959595" d="M 359.5,164.5 C 360.5,164.5 361.5,164.5 362.5,164.5C 360.122,166.123 357.455,167.457 354.5,168.5C 347.01,174.635 342.01,182.302 339.5,191.5C 339.5,190.5 339.5,189.5 339.5,188.5C 342.177,177.158 348.844,169.158 359.5,164.5 Z"/></g>
<g><path style="opacity:0.027" fill="#4b4b4b" d="M 731.5,182.5 C 727.286,183.702 722.952,184.369 718.5,184.5C 717.167,184.5 716.5,185.167 716.5,186.5C 712.779,186.911 709.112,187.578 705.5,188.5C 708.128,186.519 711.128,185.019 714.5,184C 719.147,183.059 723.814,182.225 728.5,181.5C 729.726,181.52 730.726,181.853 731.5,182.5 Z"/></g>
<g><path style="opacity:0.008" fill="#a0a0a0" d="M 718.5,184.5 C 718.5,185.833 717.833,186.5 716.5,186.5C 716.5,185.167 717.167,184.5 718.5,184.5 Z"/></g>
<g><path style="opacity:0.502" fill="#838383" d="M 376.5,182.5 C 380.493,185.436 380.159,188.103 375.5,190.5C 366.287,186.543 362.454,189.543 364,199.5C 369.702,205.868 376.535,207.202 384.5,203.5C 383.653,204.966 382.32,205.8 380.5,206C 367.153,208.969 360.986,203.803 362,190.5C 366.02,186.228 370.853,185.228 376.5,187.5C 376.5,185.833 376.5,184.167 376.5,182.5 Z"/></g>
<g><path style="opacity:0.251" fill="#5b5b5b" d="M 704.5,188.5 C 704.389,189.117 704.056,189.617 703.5,190C 699.482,191.171 695.482,192.337 691.5,193.5C 691.47,192.503 691.97,191.836 693,191.5C 696.661,189.748 700.494,188.748 704.5,188.5 Z"/></g>
<g><path style="opacity:0.102" fill="#696969" d="M 690.5,193.5 C 685.237,196.132 679.903,198.798 674.5,201.5C 678.874,197.313 684.207,194.646 690.5,193.5 Z"/></g>
<g><path style="opacity:0.494" fill="#8d8d8d" d="M 335.5,168.5 C 335.5,169.167 335.5,169.833 335.5,170.5C 323.073,193.579 325.407,214.912 342.5,234.5C 340.606,233.952 338.94,232.952 337.5,231.5C 332.178,225.034 328.678,217.701 327,209.5C 324.623,194.56 327.456,180.893 335.5,168.5 Z"/></g>
<g><path style="opacity:0.741" fill="#5f5f5f" d="M 339.5,188.5 C 339.5,189.5 339.5,190.5 339.5,191.5C 339.375,197.203 339.708,202.87 340.5,208.5C 340.5,208.833 340.5,209.167 340.5,209.5C 337.044,202.645 336.711,195.645 339.5,188.5 Z"/></g>
<g><path style="opacity:0.514" fill="#6a6a6a" d="M 438.5,179.5 C 439.192,190.191 437.859,200.524 434.5,210.5C 433.833,210.5 433.167,210.5 432.5,210.5C 435.335,200.19 437.335,189.857 438.5,179.5 Z"/></g>
<g><path style="opacity:0.267" fill="#939393" d="M 780.5,205.5 C 777.289,205.235 775.289,203.568 774.5,200.5C 776.939,192.712 780.272,185.379 784.5,178.5C 785.537,177.983 785.703,178.649 785,180.5C 781.878,186.697 779.045,193.03 776.5,199.5C 776.667,200.5 776.833,201.5 777,202.5C 778.518,203.163 779.685,204.163 780.5,205.5 Z"/></g>
<g><path style="opacity:0.114" fill="#767676" d="M 673.5,203.5 C 668.797,206.514 664.13,209.514 659.5,212.5C 663.287,208.015 667.787,204.348 673,201.5C 673.464,202.094 673.631,202.761 673.5,203.5 Z"/></g>
<g><path style="opacity:0.035" fill="#707070" d="M 785.5,205.5 C 788.304,204.362 791.304,204.195 794.5,205C 796.119,205.236 797.119,206.069 797.5,207.5C 793.36,207.311 789.36,206.644 785.5,205.5 Z"/></g>
<g><path style="opacity:0.094" fill="#bcbcbc" d="M 340.5,208.5 C 342.448,210.32 343.448,212.654 343.5,215.5C 341.992,213.819 340.992,211.819 340.5,209.5C 340.5,209.167 340.5,208.833 340.5,208.5 Z"/></g>
<g><path style="opacity:0.314" fill="#858585" d="M 801.5,207.5 C 802.568,206.566 803.901,206.232 805.5,206.5C 805.514,210.475 804.181,213.808 801.5,216.5C 801.389,215.883 801.056,215.383 800.5,215C 803.833,212.581 804.167,210.081 801.5,207.5 Z"/></g>
<g><path style="opacity:0.314" fill="#878787" d="M 454.5,190.5 C 453.12,217.062 441.786,238.228 420.5,254C 415.207,256.264 409.873,258.431 404.5,260.5C 403.893,260.376 403.56,260.043 403.5,259.5C 422.871,252.628 437.038,239.961 446,221.5C 449.278,211.399 452.111,201.066 454.5,190.5 Z"/></g>
<g><path style="opacity:0.004" fill="#bcbcbc" d="M 658.5,213.5 C 658.573,215.027 657.906,216.027 656.5,216.5C 656.5,215.833 656.5,215.167 656.5,214.5C 657.167,214.167 657.833,213.833 658.5,213.5 Z"/></g>
<g><path style="opacity:0.29" fill="#939393" d="M 801.5,216.5 C 801.5,218.5 800.5,219.5 798.5,219.5C 798.856,217.81 799.856,216.81 801.5,216.5 Z"/></g>
<g><path style="opacity:0.349" fill="#838383" d="M 378.5,154.5 C 389.249,155.962 398.083,160.962 405,169.5C 410.776,183.85 409.276,197.35 400.5,210C 396.314,215.437 390.98,219.437 384.5,222C 372.116,222.68 362.616,217.847 356,207.5C 353.318,199.097 354.485,191.431 359.5,184.5C 356.225,191.913 355.725,199.58 358,207.5C 372.24,224.727 386.24,224.727 400,207.5C 414.689,180.68 407.522,163.346 378.5,155.5C 378.5,155.167 378.5,154.833 378.5,154.5 Z"/></g>
<g><path style="opacity:0.216" fill="#818181" d="M 416.5,212.5 C 414.382,219.28 410.382,224.613 404.5,228.5C 408.163,222.848 412.163,217.514 416.5,212.5 Z"/></g>
<g><path style="opacity:0.298" fill="#6d6d6d" d="M 656.5,214.5 C 656.5,215.167 656.5,215.833 656.5,216.5C 649.814,220.854 644.481,226.52 640.5,233.5C 640.565,233.938 640.399,234.272 640,234.5C 639.448,231.581 640.115,228.914 642,226.5C 646.588,222.134 651.421,218.134 656.5,214.5 Z"/></g>
<g><path style="opacity:0.298" fill="#777777" d="M 798.5,220.5 C 796.156,225.21 792.822,228.21 788.5,229.5C 791.833,226.5 795.167,223.5 798.5,220.5 Z"/></g>
<g><path style="opacity:0.235" fill="#7c7c7c" d="M 787.5,229.5 C 787.5,231.5 786.5,232.5 784.5,232.5C 784.81,230.856 785.81,229.856 787.5,229.5 Z"/></g>
<g><path style="opacity:0.363" fill="#737373" d="M 343.5,215.5 C 347.479,220.146 351.812,224.479 356.5,228.5C 366.022,235.777 376.689,238.443 388.5,236.5C 394.16,234.337 399.494,231.67 404.5,228.5C 395.136,238.178 383.803,241.345 370.5,238C 360.244,234.041 351.577,227.874 344.5,219.5C 343.571,218.311 343.238,216.978 343.5,215.5 Z"/></g>
<g><path style="opacity:0.067" fill="#919191" d="M 646.5,233.5 C 648.216,233.629 649.883,233.962 651.5,234.5C 651.158,235.338 650.492,235.672 649.5,235.5C 647.821,235.715 646.821,235.048 646.5,233.5 Z"/></g>
<g><path style="opacity:0.137" fill="#8c8c8c" d="M 319.5,232.5 C 321.963,234.732 323.963,237.398 325.5,240.5C 324.5,239.833 323.5,239.167 322.5,238.5C 321.13,236.75 320.13,234.75 319.5,232.5 Z"/></g>
<g><path style="opacity:0.635" fill="#767676" d="M 342.5,234.5 C 344.754,235.124 346.421,236.457 347.5,238.5C 345.205,237.864 343.539,236.531 342.5,234.5 Z"/></g>
<g><path style="opacity:0.549" fill="#5d5d5d" d="M 783.5,232.5 C 779.657,237.262 774.657,240.262 768.5,241.5C 773.299,238.263 778.299,235.263 783.5,232.5 Z"/></g>
<g><path style="opacity:0.71" fill="#676767" d="M 651.5,234.5 C 660.67,234.834 664.17,239.501 662,248.5C 659.268,252.759 657.768,257.426 657.5,262.5C 656.503,262.53 655.836,262.03 655.5,261C 656.617,256.975 658.117,253.142 660,249.5C 660.667,246.167 660.667,242.833 660,239.5C 656.585,237.644 653.085,236.311 649.5,235.5C 650.492,235.672 651.158,235.338 651.5,234.5 Z"/></g>
<g><path style="opacity:0.141" fill="#757575" d="M 347.5,238.5 C 350.47,239.549 353.47,240.716 356.5,242C 357.252,242.671 357.586,243.504 357.5,244.5C 354.735,242.794 351.735,241.461 348.5,240.5C 347.702,240.043 347.369,239.376 347.5,238.5 Z"/></g>
<g><path style="opacity:0.137" fill="#7c7c7c" d="M 432.5,210.5 C 433.167,210.5 433.833,210.5 434.5,210.5C 432.111,216.978 428.777,222.978 424.5,228.5C 405.934,247.987 383.934,253.32 358.5,244.5C 358.917,243.876 359.584,243.543 360.5,243.5C 382.834,250.467 402.667,246.134 420,230.5C 422.667,227.167 425.333,223.833 428,220.5C 429.786,217.264 431.286,213.93 432.5,210.5 Z"/></g>
<g><path style="opacity:0.38" fill="#6e6e6e" d="M 322.5,238.5 C 323.5,239.167 324.5,239.833 325.5,240.5C 341.069,256.1 360.069,263.767 382.5,263.5C 389.54,263.547 396.207,262.214 402.5,259.5C 402.586,260.496 402.252,261.329 401.5,262C 371.178,269.871 345.011,262.704 323,240.5C 322.536,239.906 322.369,239.239 322.5,238.5 Z"/></g>
<g><path style="opacity:0.537" fill="#595959" d="M 767.5,241.5 C 765.49,244.027 762.823,245.861 759.5,247C 755.833,248.5 752.167,250 748.5,251.5C 747.893,251.376 747.56,251.043 747.5,250.5C 754.115,247.504 760.782,244.504 767.5,241.5 Z"/></g>
<g><path style="opacity:0.416" fill="#6e6e6e" d="M 742.5,251.5 C 742.426,253.411 741.426,254.578 739.5,255C 737.5,255.5 735.5,256 733.5,256.5C 732.584,256.457 731.917,256.124 731.5,255.5C 735.493,254.923 739.16,253.59 742.5,251.5 Z"/></g>
<g><path style="opacity:0.559" fill="#424242" d="M 730.5,255.5 C 730.586,256.496 730.252,257.329 729.5,258C 727.608,258.973 725.608,259.64 723.5,260C 729.348,260.173 735.015,260.673 740.5,261.5C 740.5,261.833 740.5,262.167 740.5,262.5C 731.416,262.804 722.416,262.471 713.5,261.5C 713.611,260.883 713.944,260.383 714.5,260C 720.145,259.311 725.478,257.811 730.5,255.5 Z"/></g>
<g><path style="opacity:0.018" fill="#cccccc" d="M 713.5,261.5 C 713.38,262.586 712.713,263.253 711.5,263.5C 710.833,263.167 710.167,262.833 709.5,262.5C 710.689,261.571 712.022,261.238 713.5,261.5 Z"/></g>
<g><path style="opacity:0.282" fill="#727272" d="M 740.5,262.5 C 740.5,262.167 740.5,261.833 740.5,261.5C 743.228,261.171 745.562,261.837 747.5,263.5C 745.139,263.326 742.806,262.993 740.5,262.5 Z"/></g>
<g><path style="opacity:0.055" fill="#838383" d="M 659.5,262.5 C 661.728,262.777 663.395,263.777 664.5,265.5C 662.152,265.408 660.486,264.408 659.5,262.5 Z"/></g>
<g><path style="opacity:0.055" fill="#646464" d="M 752.5,263.5 C 755.082,263.025 757.082,263.692 758.5,265.5C 755.99,265.946 753.99,265.28 752.5,263.5 Z"/></g>
<g><path style="opacity:0.137" fill="#787878" d="M 760.5,265.5 C 761.097,264.861 761.93,264.528 763,264.5C 764.376,264.684 765.209,265.351 765.5,266.5C 763.784,266.371 762.117,266.038 760.5,265.5 Z"/></g>
<g><path style="opacity:0.537" fill="#777777" d="M 666.5,265.5 C 668.5,265.833 670.5,266.167 672.5,266.5C 671.903,267.139 671.07,267.472 670,267.5C 668.301,267.613 667.134,266.947 666.5,265.5 Z"/></g>
<g><path style="opacity:0.275" fill="#909090" d="M 684.5,269.5 C 682.492,267.917 680.159,266.917 677.5,266.5C 682.178,265.431 686.844,265.431 691.5,266.5C 689.061,267.407 686.728,268.407 684.5,269.5 Z"/></g>
<g><path style="opacity:0.145" fill="#606060" d="M 768.5,266.5 C 769.097,265.861 769.93,265.528 771,265.5C 777.222,267.076 783.389,268.742 789.5,270.5C 789.5,271.5 789.5,272.5 789.5,273.5C 782.657,270.852 775.657,268.518 768.5,266.5 Z"/></g>
<g><path style="opacity:0.125" fill="#707070" d="M 796.5,275.5 C 794.597,275.204 792.93,274.537 791.5,273.5C 792.46,272.485 793.627,272.485 795,273.5C 796.03,273.836 796.53,274.503 796.5,275.5 Z"/></g>
<g><path style="opacity:0.325" fill="#5b5b5b" d="M 683.5,269.5 C 675.693,271.91 668.026,274.577 660.5,277.5C 660.281,276.325 660.614,275.325 661.5,274.5C 667.777,271.969 674.277,269.969 681,268.5C 682.07,268.528 682.903,268.861 683.5,269.5 Z"/></g>
<g><path style="opacity:0.627" fill="#4e4e4e" d="M 797.5,275.5 C 800.179,276.226 802.846,277.059 805.5,278C 806.756,278.417 807.423,279.25 807.5,280.5C 803.497,279.832 800.164,278.166 797.5,275.5 Z"/></g>
<g><path style="opacity:0.137" fill="#666666" d="M 659.5,277.5 C 656.659,278.669 653.659,279.669 650.5,280.5C 652.369,278.348 654.869,277.014 658,276.5C 658.765,276.57 659.265,276.903 659.5,277.5 Z"/></g>
<g><path style="opacity:0.369" fill="#797979" d="M 807.5,280.5 C 808.525,280.897 808.692,281.563 808,282.5C 805.948,284.058 803.781,285.392 801.5,286.5C 801.414,285.504 801.748,284.671 802.5,284C 804.584,283.303 806.251,282.136 807.5,280.5 Z"/></g>
<g><path style="opacity:0.078" fill="#939393" d="M 649.5,282.5 C 649.629,284.216 649.962,285.883 650.5,287.5C 647.303,285.996 646.97,284.33 649.5,282.5 Z"/></g>
<g><path style="opacity:0.298" fill="#686868" d="M 639.5,294.5 C 641.144,294.81 642.144,295.81 642.5,297.5C 641.833,297.5 641.167,297.5 640.5,297.5C 640.443,296.391 640.11,295.391 639.5,294.5 Z"/></g>
<g><path style="opacity:0.239" fill="#858585" d="M 801.5,286.5 C 797.459,290.176 793.459,293.843 789.5,297.5C 790.242,295.574 791.242,293.741 792.5,292C 794.852,289.156 797.852,287.322 801.5,286.5 Z"/></g>
<g><path style="opacity:0.106" fill="#bbbbbb" d="M 640.5,297.5 C 641.167,297.5 641.833,297.5 642.5,297.5C 641.664,301.191 639.664,302.191 636.5,300.5C 638.455,300.201 639.789,299.201 640.5,297.5 Z"/></g>
<g><path style="opacity:0.802" fill="#000000" d="M 483.5,302.5 C 490.733,303.459 497.899,303.459 505,302.5C 508.8,303.199 512.633,303.865 516.5,304.5C 532.903,316.979 545.237,332.645 553.5,351.5C 558.228,364.793 559.395,378.46 557,392.5C 556.667,392.167 556.333,391.833 556,391.5C 555.409,397.152 553.576,402.319 550.5,407C 546.065,409.646 541.399,411.813 536.5,413.5C 550.181,362.151 532.847,325.818 484.5,304.5C 483.702,304.043 483.369,303.376 483.5,302.5 Z"/></g>
<g><path style="opacity:0.004" fill="#7a7a7a" d="M 789.5,300.5 C 793.093,303.769 796.759,306.769 800.5,309.5C 795.017,308.607 791.351,305.607 789.5,300.5 Z"/></g>
<g><path style="opacity:0.035" fill="#7a7a7a" d="M 651.5,288.5 C 656.386,292.059 657.552,296.726 655,302.5C 650.978,307.021 647.144,311.688 643.5,316.5C 644.16,318.815 645.493,320.481 647.5,321.5C 647.103,322.525 646.437,322.692 645.5,322C 643.773,320.611 642.439,318.944 641.5,317C 645.652,311.511 649.819,306.011 654,300.5C 654.667,298.167 654.667,295.833 654,293.5C 652.628,292.09 651.795,290.423 651.5,288.5 Z"/></g>
<g><path style="opacity:0.059" fill="#686868" d="M 800.5,309.5 C 802.17,309.751 803.67,310.418 805,311.5C 806.621,313.493 808.287,315.493 810,317.5C 810.667,318.167 810.667,318.833 810,319.5C 806.057,323.221 801.557,326.055 796.5,328C 792.63,329.287 788.964,330.953 785.5,333C 783.934,333.765 782.601,333.598 781.5,332.5C 790.835,329.164 799.668,324.831 808,319.5C 808.667,318.833 808.667,318.167 808,317.5C 805.295,314.964 802.795,312.297 800.5,309.5 Z"/></g>
<g><path style="opacity:0.184" fill="#b0b0b0" d="M 389.5,318.5 C 389.833,319.167 390.167,319.833 390.5,320.5C 384.855,319.284 379.188,319.284 373.5,320.5C 373.611,319.883 373.944,319.383 374.5,319C 379.489,318.501 384.489,318.334 389.5,318.5 Z"/></g>
<g><path style="opacity:0.369" fill="#7a7a7a" d="M 648.5,321.5 C 650.937,323.385 653.604,324.719 656.5,325.5C 656.44,326.043 656.107,326.376 655.5,326.5C 654.205,325.902 652.872,325.402 651.5,325C 649.574,324.578 648.574,323.411 648.5,321.5 Z"/></g>
<g><path style="opacity:0.059" fill="#adadad" d="M 658.5,325.5 C 659.833,325.5 660.5,326.167 660.5,327.5C 659.833,327.5 659.167,327.5 658.5,327.5C 658.5,326.833 658.5,326.167 658.5,325.5 Z"/></g>
<g><path style="opacity:0.141" fill="#838383" d="M 389.5,318.5 C 410.629,321.649 427.796,331.649 441,348.5C 443.038,351.243 444.538,354.243 445.5,357.5C 441.593,352.734 437.76,347.734 434,342.5C 421.889,330.722 407.389,323.389 390.5,320.5C 390.167,319.833 389.833,319.167 389.5,318.5 Z"/></g>
<g><path style="opacity:0.059" fill="#777777" d="M 658.5,327.5 C 659.167,327.5 659.833,327.5 660.5,327.5C 664.553,328.013 668.553,328.846 672.5,330C 673.056,330.383 673.389,330.883 673.5,331.5C 668.192,330.912 663.192,329.579 658.5,327.5 Z"/></g>
<g><path style="opacity:0.541" fill="#747474" d="M 675.5,331.5 C 679.468,332.394 683.468,333.227 687.5,334C 688.056,334.383 688.389,334.883 688.5,335.5C 687.5,335.5 686.5,335.5 685.5,335.5C 681.687,335.062 678.354,333.729 675.5,331.5 Z"/></g>
<g><path style="opacity:0.543" fill="#464646" d="M 780.5,332.5 C 779.309,334.522 777.476,335.855 775,336.5C 772.654,337.503 770.487,337.503 768.5,336.5C 772.305,334.723 776.305,333.39 780.5,332.5 Z"/></g>
<g><path style="opacity:0.702" fill="#696969" d="M 401.5,337.5 C 401.5,338.167 401.5,338.833 401.5,339.5C 387.208,334.399 372.874,334.399 358.5,339.5C 358.5,338.833 358.5,338.167 358.5,337.5C 366.375,335.925 374.209,334.591 382,333.5C 388.532,334.254 395.032,335.588 401.5,337.5 Z"/></g>
<g><path style="opacity:0.845" fill="#4d4d4d" d="M 685.5,335.5 C 686.5,335.5 687.5,335.5 688.5,335.5C 693.833,336.167 699.167,336.833 704.5,337.5C 704.218,338.778 703.551,339.778 702.5,340.5C 700.5,340.5 698.5,340.5 696.5,340.5C 691.265,338.55 685.598,337.883 679.5,338.5C 682.305,337.681 685.305,337.181 688.5,337C 687.263,336.768 686.263,336.268 685.5,335.5 Z"/></g>
<g><path style="opacity:0.404" fill="#393939" d="M 678.5,338.5 C 678.5,339.167 678.5,339.833 678.5,340.5C 674.167,340.5 669.833,340.5 665.5,340.5C 665.5,340.167 665.5,339.833 665.5,339.5C 669.634,338.515 673.968,338.182 678.5,338.5 Z"/></g>
<g><path style="opacity:0.065" fill="#aaaaaa" d="M 678.5,338.5 C 678.833,338.5 679.167,338.5 679.5,338.5C 685.598,337.883 691.265,338.55 696.5,340.5C 690.519,339.385 684.519,339.385 678.5,340.5C 678.5,339.833 678.5,339.167 678.5,338.5 Z"/></g>
<g><path style="opacity:0.086" fill="#848484" d="M 389.5,318.5 C 384.489,318.334 379.489,318.501 374.5,319C 373.944,319.383 373.611,319.883 373.5,320.5C 365.971,321.223 358.638,322.723 351.5,325C 322.021,337.401 308.855,359.568 312,391.5C 313.928,399.355 316.428,407.021 319.5,414.5C 303.297,385.806 306.631,359.64 329.5,336C 342.041,325.925 356.374,319.925 372.5,318C 378.349,317.182 384.015,317.348 389.5,318.5 Z"/></g>
<g><path style="opacity:0.243" fill="#8e8e8e" d="M 358.5,337.5 C 358.5,338.167 358.5,338.833 358.5,339.5C 354.973,340.26 351.64,341.594 348.5,343.5C 342.798,347.539 337.798,352.206 333.5,357.5C 333.351,356.448 333.517,355.448 334,354.5C 340.842,346.99 349.008,341.323 358.5,337.5 Z"/></g>
<g><path style="opacity:0.184" fill="#898989" d="M 704.5,337.5 C 706.292,337.366 707.958,337.699 709.5,338.5C 707.781,339.022 706.448,340.022 705.5,341.5C 704.209,341.737 703.209,341.404 702.5,340.5C 703.551,339.778 704.218,338.778 704.5,337.5 Z"/></g>
<g><path style="opacity:0.945" fill="#3a3a3a" d="M 767.5,336.5 C 764.234,338.431 760.567,339.931 756.5,341C 753.633,341.801 750.966,341.634 748.5,340.5C 754.624,338.422 760.957,337.088 767.5,336.5 Z"/></g>
<g><path style="opacity:0.288" fill="#868686" d="M 401.5,337.5 C 412.545,341.858 421.545,348.858 428.5,358.5C 430.009,360.656 431.009,362.99 431.5,365.5C 427.012,358.752 421.678,352.585 415.5,347C 411.114,343.828 406.448,341.328 401.5,339.5C 401.5,338.833 401.5,338.167 401.5,337.5 Z"/></g>
<g><path style="opacity:0.795" fill="#3d3d3d" d="M 709.5,338.5 C 722.126,340.565 734.792,341.231 747.5,340.5C 747.389,341.117 747.056,341.617 746.5,342C 736.812,342.755 727.146,342.589 717.5,341.5C 716.5,341.667 715.5,341.833 714.5,342C 715.252,342.671 715.586,343.504 715.5,344.5C 712.407,342.891 709.073,341.891 705.5,341.5C 706.448,340.022 707.781,339.022 709.5,338.5 Z"/></g>
<g><path style="opacity:0.394" fill="#696969" d="M 665.5,339.5 C 665.5,339.833 665.5,340.167 665.5,340.5C 662.427,340.453 660.094,341.619 658.5,344C 659.314,347.913 660.314,351.746 661.5,355.5C 660.504,355.586 659.671,355.252 659,354.5C 658.356,350.779 657.523,347.113 656.5,343.5C 658.613,340.279 661.613,338.945 665.5,339.5 Z"/></g>
<g><path style="opacity:0.647" fill="#6b6b6b" d="M 727.5,348.5 C 724.233,346.857 720.9,345.524 717.5,344.5C 717.735,343.903 718.235,343.57 719,343.5C 720.811,344.078 722.645,344.578 724.5,345C 726.426,345.422 727.426,346.589 727.5,348.5 Z"/></g>
<g><path style="opacity:0.239" fill="#8a8a8a" d="M 421.5,410.5 C 425.387,393.023 422.387,377.356 412.5,363.5C 401.995,348.164 387.662,342.498 369.5,346.5C 362.234,350.114 355.234,354.114 348.5,358.5C 360.584,344.865 375.584,340.365 393.5,345C 412.558,355.747 423.224,372.08 425.5,394C 425.102,399.849 423.768,405.349 421.5,410.5 Z"/></g>
<g><path style="opacity:0.475" fill="#7a7a7a" d="M 734.5,350.5 C 732.597,350.204 730.93,349.537 729.5,348.5C 731.51,347.651 733.177,348.318 734.5,350.5 Z"/></g>
<g><path style="opacity:0.361" fill="#7d7d7d" d="M 735.5,350.5 C 736.833,350.5 737.5,351.167 737.5,352.5C 737.5,351.167 736.833,350.5 735.5,350.5 Z"/></g>
<g><path style="opacity:0.439" fill="#6e6e6e" d="M 764.5,366.5 C 755.803,361.782 747.136,357.116 738.5,352.5C 738.56,351.957 738.893,351.624 739.5,351.5C 748.613,355.296 756.946,360.296 764.5,366.5 Z"/></g>
<g><path style="opacity:0.361" fill="#9c9c9c" d="M 661.5,356.5 C 662.31,359.383 662.31,362.217 661.5,365C 660.644,366.595 659.311,367.428 657.5,367.5C 657.833,366.833 658.167,366.167 658.5,365.5C 659.117,365.389 659.617,365.056 660,364.5C 660.183,361.635 660.683,358.969 661.5,356.5 Z"/></g>
<g><path style="opacity:0.38" fill="#818181" d="M 348.5,358.5 C 344.942,363.114 342.275,368.281 340.5,374C 339.987,376.642 339.654,379.309 339.5,382C 340.819,390.79 343.819,398.957 348.5,406.5C 336.508,393.654 334.674,379.32 343,363.5C 344.704,361.627 346.537,359.96 348.5,358.5 Z"/></g>
<g><path style="opacity:0.2" fill="#7b7b7b" d="M 402.5,375.5 C 399.142,371.636 395.475,367.802 391.5,364C 386.894,360.967 381.894,359.967 376.5,361C 373.242,362.467 369.908,363.633 366.5,364.5C 366.47,363.503 366.97,362.836 368,362.5C 383.504,356.058 395.004,360.392 402.5,375.5 Z"/></g>
<g><path style="opacity:0.616" fill="#2b2b2b" d="M 658.5,365.5 C 658.167,366.167 657.833,366.833 657.5,367.5C 651.974,367.179 646.64,367.512 641.5,368.5C 640.833,368.167 640.167,367.833 639.5,367.5C 639.918,366.778 640.584,366.278 641.5,366C 647.157,365.501 652.824,365.334 658.5,365.5 Z"/></g>
<g><path style="opacity:0.345" fill="#838383" d="M 445.5,357.5 C 448.893,361.804 451.059,366.804 452,372.5C 452.392,375.188 452.892,377.855 453.5,380.5C 453.457,381.416 453.124,382.083 452.5,382.5C 450.765,373.965 448.431,365.632 445.5,357.5 Z"/></g>
<g><path style="opacity:0.004" fill="#707070" d="M 764.5,366.5 C 766.795,367.136 768.461,368.469 769.5,370.5C 767.111,370.021 765.444,368.688 764.5,366.5 Z"/></g>
<g><path style="opacity:0.188" fill="#868686" d="M 639.5,367.5 C 640.167,367.833 640.833,368.167 641.5,368.5C 641.528,371.251 642.528,373.585 644.5,375.5C 644.376,376.107 644.043,376.44 643.5,376.5C 641.044,374.182 639.711,371.182 639.5,367.5 Z"/></g>
<g><path style="opacity:0.435" fill="#7a7a7a" d="M 431.5,365.5 C 437.244,376.209 439.911,387.875 439.5,400.5C 437.636,388.707 434.97,377.04 431.5,365.5 Z"/></g>
<g><path style="opacity:0.188" fill="#8b8b8b" d="M 644.5,377.5 C 645.674,378.514 646.34,379.847 646.5,381.5C 644.896,380.713 644.229,379.38 644.5,377.5 Z"/></g>
<g><path style="opacity:0.118" fill="#515151" d="M 646.5,381.5 C 647.721,382.028 648.887,382.695 650,383.5C 651.388,385.702 652.888,387.702 654.5,389.5C 650.812,387.812 648.145,385.145 646.5,381.5 Z"/></g>
<g><path style="opacity:0.02" fill="#9a9a9a" d="M 402.5,375.5 C 405.062,379.164 407.062,383.164 408.5,387.5C 407.833,387.5 407.167,387.5 406.5,387.5C 404.861,383.612 403.527,379.612 402.5,375.5 Z"/></g>
<g><path style="opacity:0.122" fill="#848484" d="M 366.5,364.5 C 362.48,367.358 359.314,371.025 357,375.5C 355.103,383.694 356.936,390.861 362.5,397C 366.833,399 371.167,399 375.5,397C 377.155,395.556 377.822,393.722 377.5,391.5C 365.971,396.452 360.805,392.786 362,380.5C 366.468,373.915 372.635,371.748 380.5,374C 383.239,375.026 385.572,376.526 387.5,378.5C 383.373,377.18 379.207,376.18 375,375.5C 365.078,376.012 361.578,381.012 364.5,390.5C 369.663,391.235 374.663,391.235 379.5,390.5C 379.876,393.707 378.876,396.373 376.5,398.5C 362.857,402.219 355.523,396.886 354.5,382.5C 354.178,373.509 358.178,367.509 366.5,364.5 Z"/></g>
<g><path style="opacity:0.302" fill="#616161" d="M 654.5,389.5 C 656.795,390.136 658.461,391.469 659.5,393.5C 657.251,392.92 655.585,391.587 654.5,389.5 Z"/></g>
<g><path style="opacity:0.286" fill="#8f8f8f" d="M 387.5,378.5 C 394.607,383.642 397.107,390.642 395,399.5C 392,406.665 386.834,411.665 379.5,414.5C 378.167,414.5 376.833,414.5 375.5,414.5C 379.644,412.822 383.644,410.655 387.5,408C 395.478,398.207 395.478,388.374 387.5,378.5 Z"/></g>
<g><path style="opacity:0.278" fill="#656565" d="M 660.5,393.5 C 662.23,394.026 663.564,395.026 664.5,396.5C 664.565,396.938 664.399,397.272 664,397.5C 661.929,396.897 660.762,395.564 660.5,393.5 Z"/></g>
<g><path style="opacity:0.635" fill="#737373" d="M 406.5,387.5 C 407.167,387.5 407.833,387.5 408.5,387.5C 408.5,392.5 408.5,397.5 408.5,402.5C 407.833,402.5 407.167,402.5 406.5,402.5C 406.5,397.5 406.5,392.5 406.5,387.5 Z"/></g>
<g><path style="opacity:0.033" fill="#cdcdcd" d="M 602.5,404.5 C 602.5,405.167 602.5,405.833 602.5,406.5C 598.146,404.652 593.48,403.985 588.5,404.5C 588.5,404.167 588.5,403.833 588.5,403.5C 592.646,402.353 596.98,402.186 601.5,403C 602.056,403.383 602.389,403.883 602.5,404.5 Z"/></g>
<g><path style="opacity:0.004" fill="#fefffe" d="M 588.5,404.5 C 588.103,405.525 587.437,405.692 586.5,405C 587.094,404.536 587.761,404.369 588.5,404.5 Z"/></g>
<g><path style="opacity:0.231" fill="#787878" d="M 769.5,370.5 C 776.692,374.187 782.858,379.187 788,385.5C 790.333,389.833 792.667,394.167 795,398.5C 795.497,400.81 795.663,403.143 795.5,405.5C 791.486,405.666 787.486,405.499 783.5,405C 781.347,404.901 779.681,404.067 778.5,402.5C 783.343,403.068 788.176,403.734 793,404.5C 793.5,404.167 794,403.833 794.5,403.5C 793.811,401.556 793.311,399.556 793,397.5C 786.733,387.071 778.9,378.071 769.5,370.5 Z"/></g>
<g><path style="opacity:0.424" fill="#707070" d="M 775.5,402.5 C 772.166,402.709 770.166,404.543 769.5,408C 771.209,413.379 772.209,418.879 772.5,424.5C 770.705,420.48 769.538,416.147 769,411.5C 768.333,408.833 768.333,406.167 769,403.5C 770.693,402.816 772.193,401.816 773.5,400.5C 774.182,401.243 774.849,401.909 775.5,402.5 Z"/></g>
<g><path style="opacity:0.031" fill="#989898" d="M 602.5,404.5 C 604.192,406.205 605.525,408.205 606.5,410.5C 604.736,409.674 603.402,408.341 602.5,406.5C 602.5,405.833 602.5,405.167 602.5,404.5 Z"/></g>
<g><path style="opacity:0.702" fill="#606060" d="M 673.5,402.5 C 678.102,404.466 682.102,407.133 685.5,410.5C 680.391,409.294 676.391,406.627 673.5,402.5 Z"/></g>
<g><path style="opacity:0.031" fill="#777777" d="M 686.5,410.5 C 689.225,410.937 691.225,412.27 692.5,414.5C 689.775,414.063 687.775,412.73 686.5,410.5 Z"/></g>
<g><path style="opacity:0.51" fill="#787878" d="M 692.5,414.5 C 696.182,414.711 699.182,416.044 701.5,418.5C 698.088,417.925 695.088,416.592 692.5,414.5 Z"/></g>
<g><path style="opacity:0.494" fill="#868686" d="M 319.5,414.5 C 321.532,415.048 322.532,416.381 322.5,418.5C 320.738,417.738 319.738,416.404 319.5,414.5 Z"/></g>
<g><path style="opacity:0.004" fill="#000000" d="M 789.5,418.5 C 789.897,417.475 790.563,417.308 791.5,418C 790.906,418.464 790.239,418.631 789.5,418.5 Z"/></g>
<g><path style="opacity:0.004" fill="#000000" d="M 792.5,418.5 C 793.601,417.402 794.934,417.235 796.5,418C 795.207,418.49 793.873,418.657 792.5,418.5 Z"/></g>
<g><path style="opacity:0.004" fill="#000000" d="M 797.5,418.5 C 798.675,418.281 799.675,418.614 800.5,419.5C 798.948,420.798 797.948,420.465 797.5,418.5 Z"/></g>
<g><path style="opacity:0.643" fill="#7c7c7c" d="M 333.5,357.5 C 325.077,374.809 325.91,391.809 336,408.5C 348.285,422.202 363.452,426.702 381.5,422C 388.327,420.587 394.327,417.587 399.5,413C 402.738,410.002 405.071,406.502 406.5,402.5C 407.167,402.5 407.833,402.5 408.5,402.5C 404.418,411.963 397.584,418.63 388,422.5C 375.667,425.167 363.333,425.167 351,422.5C 345.355,418.847 340.022,414.847 335,410.5C 325.13,393.994 323.964,376.827 331.5,359C 331.836,357.97 332.503,357.47 333.5,357.5 Z"/></g>
<g><path style="opacity:0.314" fill="#606060" d="M 359.5,414.5 C 360.833,414.5 362.167,414.5 363.5,414.5C 367.5,414.5 371.5,414.5 375.5,414.5C 376.833,414.5 378.167,414.5 379.5,414.5C 372.824,417.108 366.157,417.108 359.5,414.5 Z"/></g>
<g><path style="opacity:0.522" fill="#888888" d="M 348.5,406.5 C 353.161,409.932 358.161,412.599 363.5,414.5C 362.167,414.5 360.833,414.5 359.5,414.5C 354.708,413.373 351.041,410.707 348.5,406.5 Z"/></g>
<g><path style="opacity:0.235" fill="#636363" d="M 705.5,419.5 C 711.358,422.119 717.358,424.119 723.5,425.5C 718.909,425.704 714.243,424.871 709.5,423C 707.681,422.26 706.348,421.093 705.5,419.5 Z"/></g>
<g><path style="opacity:0.02" fill="#000000" d="M 791.5,424.5 C 792.5,424.5 793.5,424.5 794.5,424.5C 794.5,425.5 794.5,426.5 794.5,427.5C 793.5,427.5 792.5,427.5 791.5,427.5C 791.5,426.5 791.5,425.5 791.5,424.5 Z"/></g>
<g><path style="opacity:0.027" fill="#525252" d="M 616.5,423.5 C 618.531,424.539 619.864,426.205 620.5,428.5C 618.457,427.421 617.124,425.754 616.5,423.5 Z"/></g>
<g><path style="opacity:0.361" fill="#616161" d="M 725.5,425.5 C 727.553,425.402 729.22,426.069 730.5,427.5C 729.399,428.598 728.066,428.765 726.5,428C 725.748,427.329 725.414,426.496 725.5,425.5 Z"/></g>
<g><path style="opacity:0.671" fill="#5d5d5d" d="M 772.5,424.5 C 774.927,425.279 774.927,426.446 772.5,428C 769.633,428.801 766.966,428.634 764.5,427.5C 767.443,427.02 770.11,426.02 772.5,424.5 Z"/></g>
<g><path style="opacity:0.412" fill="#777777" d="M 732.5,427.5 C 736.906,428.092 741.239,428.092 745.5,427.5C 745.5,428.167 745.5,428.833 745.5,429.5C 741.486,429.666 737.486,429.499 733.5,429C 732.944,428.617 732.611,428.117 732.5,427.5 Z"/></g>
<g><path style="opacity:0.781" fill="#313131" d="M 745.5,427.5 C 751.167,427.5 756.833,427.5 762.5,427.5C 761.391,428.29 760.058,428.79 758.5,429C 754.179,429.499 749.846,429.666 745.5,429.5C 745.5,428.833 745.5,428.167 745.5,427.5 Z"/></g>
<g><path style="opacity:0.027" fill="#878787" d="M 621.5,429.5 C 624.044,430.708 625.378,432.708 625.5,435.5C 623.782,433.777 622.449,431.777 621.5,429.5 Z"/></g>
<g><path style="opacity:0.435" fill="#818181" d="M 421.5,410.5 C 421.245,413.016 420.411,415.35 419,417.5C 409.108,430.696 395.942,438.03 379.5,439.5C 378.5,439.5 377.5,439.5 376.5,439.5C 376.611,438.883 376.944,438.383 377.5,438C 382.569,437.575 387.569,436.741 392.5,435.5C 405.406,429.862 415.073,421.529 421.5,410.5 Z"/></g>
<g><path style="opacity:0.09" fill="#838383" d="M 322.5,418.5 C 327.763,422.814 333.097,427.148 338.5,431.5C 344.95,435.364 351.95,437.53 359.5,438C 360.056,438.383 360.389,438.883 360.5,439.5C 359.5,439.5 358.5,439.5 357.5,439.5C 342.541,437.853 330.875,430.853 322.5,418.5 Z"/></g>
<g><path style="opacity:0.35" fill="#5d5d5d" d="M 357.5,439.5 C 358.5,439.5 359.5,439.5 360.5,439.5C 365.833,439.5 371.167,439.5 376.5,439.5C 377.5,439.5 378.5,439.5 379.5,439.5C 372.167,442.167 364.833,442.167 357.5,439.5 Z"/></g>
<g><path style="opacity:0.11" fill="#adadad" d="M 481.5,449.5 C 481.631,450.376 481.298,451.043 480.5,451.5C 473.372,455.73 466.039,459.397 458.5,462.5C 465.969,457.929 473.636,453.596 481.5,449.5 Z"/></g>
<g><path style="opacity:0.011" fill="#fefffe" d="M 445.5,476.5 C 447.549,476.706 447.883,477.539 446.5,479C 445.056,479.781 443.723,479.614 442.5,478.5C 443.602,477.824 444.602,477.158 445.5,476.5 Z"/></g>
<g><path style="opacity:0.004" fill="#000000" d="M 1256.5,587.5 C 1257.83,588.167 1257.83,588.167 1256.5,587.5 Z"/></g>
<g><path style="opacity:0.129" fill="#8c8c8c" d="M 363.5,681.5 C 355.635,681.135 347.969,681.801 340.5,683.5C 340.5,682.5 340.5,681.5 340.5,680.5C 346.69,680.617 352.857,680.284 359,679.5C 360.986,679.569 362.486,680.235 363.5,681.5 Z"/></g>
<g><path style="opacity:0.027" fill="#9c9c9c" d="M 317.5,690.5 C 317.5,691.833 316.833,692.5 315.5,692.5C 315.833,691.5 316.5,690.833 317.5,690.5 Z"/></g>
<g><path style="opacity:0.38" fill="#6a6a6a" d="M 361.5,692.5 C 358.316,694.414 354.649,695.08 350.5,694.5C 350.5,694.167 350.5,693.833 350.5,693.5C 354.127,693.699 357.794,693.366 361.5,692.5 Z"/></g>
<g><path style="opacity:0.224" fill="#a9a9a9" d="M 350.5,693.5 C 350.5,693.833 350.5,694.167 350.5,694.5C 333.471,697.155 323.138,706.822 319.5,723.5C 318.833,723.833 318.167,724.167 317.5,724.5C 320.343,710.992 328.01,701.325 340.5,695.5C 343.706,694.192 347.04,693.525 350.5,693.5 Z"/></g>
<g><path style="opacity:0.235" fill="#696969" d="M 310.5,698.5 C 306.796,704.992 304.462,711.992 303.5,719.5C 303.148,713.849 304.315,708.182 307,702.5C 307.949,700.907 309.115,699.574 310.5,698.5 Z"/></g>
<g><path style="opacity:0.329" fill="#6d6d6d" d="M 319.5,723.5 C 318.94,725.801 318.44,728.134 318,730.5C 317.329,731.252 316.496,731.586 315.5,731.5C 315.4,728.892 316.067,726.558 317.5,724.5C 318.167,724.167 318.833,723.833 319.5,723.5 Z"/></g>
<g><path style="opacity:0.745" fill="#616161" d="M 303.5,730.5 C 303.5,737.5 303.5,744.5 303.5,751.5C 302.778,751.082 302.278,750.416 302,749.5C 301.333,743.5 301.333,737.5 302,731.5C 302.383,730.944 302.883,730.611 303.5,730.5 Z"/></g>
<g><path style="opacity:0.004" fill="#000000" d="M 644.5,940.5 C 646.337,940.639 646.67,941.306 645.5,942.5C 644.702,942.043 644.369,941.376 644.5,940.5 Z"/></g>
<g><path style="opacity:0.004" fill="#000000" d="M 649.5,949.5 C 648.227,948.923 648.227,948.257 649.5,947.5C 650.463,947.97 650.463,948.637 649.5,949.5 Z"/></g>
<g><path style="opacity:0.373" fill="#525252" d="M 637.5,1110.5 C 638.102,1114.3 639.102,1117.97 640.5,1121.5C 639.596,1122.21 639.263,1123.21 639.5,1124.5C 637.385,1119.95 636.718,1115.28 637.5,1110.5 Z"/></g>
<g><path style="opacity:0.133" fill="#878787" d="M 640.5,1121.5 C 641.777,1127.75 643.777,1133.75 646.5,1139.5C 642.922,1135.2 640.588,1130.2 639.5,1124.5C 639.263,1123.21 639.596,1122.21 640.5,1121.5 Z"/></g>
<g><path style="opacity:0.114" fill="#737373" d="M 646.5,1139.5 C 649.741,1143.64 652.741,1147.97 655.5,1152.5C 650.756,1149.34 647.756,1145 646.5,1139.5 Z"/></g>
<g><path style="opacity:0.112" fill="#7e7e7e" d="M 655.5,1152.5 C 658.268,1154.09 660.935,1155.92 663.5,1158C 664.252,1158.67 664.586,1159.5 664.5,1160.5C 660.9,1158.57 657.9,1155.9 655.5,1152.5 Z"/></g>
<g><path style="opacity:0.404" fill="#656565" d="M 665.5,1160.5 C 666.71,1160.93 667.71,1161.6 668.5,1162.5C 668.095,1163.55 667.429,1163.55 666.5,1162.5C 665.702,1162.04 665.369,1161.38 665.5,1160.5 Z"/></g>
<g><path style="opacity:0.482" fill="#515151" d="M 669.5,1162.5 C 671.711,1164.1 674.044,1165.44 676.5,1166.5C 676.44,1167.04 676.107,1167.38 675.5,1167.5C 673.833,1166.83 672.167,1166.17 670.5,1165.5C 669.614,1164.68 669.281,1163.68 669.5,1162.5 Z"/></g>
<g><path style="opacity:0.675" fill="#404040" d="M 678.5,1166.5 C 685.124,1168.71 691.791,1170.71 698.5,1172.5C 698.265,1173.1 697.765,1173.43 697,1173.5C 690.874,1171.93 684.707,1170.59 678.5,1169.5C 678.5,1168.5 678.5,1167.5 678.5,1166.5 Z"/></g>
<g><path style="opacity:0.516" fill="#565656" d="M 708.5,1172.5 C 712.588,1173 716.588,1173 720.5,1172.5C 719.508,1174.03 718.008,1174.69 716,1174.5C 713.24,1174.35 710.74,1173.69 708.5,1172.5 Z"/></g>
<g><path style="opacity:0.639" fill="#515151" d="M 303.5,1497.5 C 303.5,1500.5 303.5,1503.5 303.5,1506.5C 303.5,1507.17 303.5,1507.83 303.5,1508.5C 302.313,1506.26 301.646,1503.76 301.5,1501C 301.608,1499.32 302.275,1498.15 303.5,1497.5 Z"/></g>
<g><path style="opacity:0.102" fill="#a7a7a7" d="M 303.5,1506.5 C 305.448,1508.32 306.448,1510.65 306.5,1513.5C 305.263,1512.04 304.263,1510.37 303.5,1508.5C 303.5,1507.83 303.5,1507.17 303.5,1506.5 Z"/></g>
<g><path style="opacity:0.118" fill="#a9a9a9" d="M 306.5,1513.5 C 308.543,1514.58 309.876,1516.25 310.5,1518.5C 309.833,1518.5 309.167,1518.5 308.5,1518.5C 307.833,1516.83 307.167,1515.17 306.5,1513.5 Z"/></g>
<g><path style="opacity:0.329" fill="#636363" d="M 308.5,1518.5 C 309.167,1518.5 309.833,1518.5 310.5,1518.5C 314.389,1522.36 319.056,1525.03 324.5,1526.5C 324.265,1527.1 323.765,1527.43 323,1527.5C 319.296,1526.4 315.796,1524.9 312.5,1523C 310.959,1521.63 309.625,1520.13 308.5,1518.5 Z"/></g>
</svg>
